<svg width="853" height="1156" viewBox="0 0 853 1156" fill="none" xmlns="http://www.w3.org/2000/svg">
<g filter="url(#filter0_d_182_4)">
<path d="M638.395 327.513L617.395 412.013L671.395 423.013L692.395 339.013C692.395 339.013 706.395 240.513 618.395 221.013C516.395 209.013 468.895 307.513 467.395 310.013C461.395 320.013 449.895 362.013 449.895 362.013C449.895 362.013 459.395 358.013 475.895 362.013C492.395 366.013 498.895 377.013 498.895 377.013C498.895 377.013 508.895 344.513 516.395 333.513C522.895 320.513 534.395 307.513 534.395 307.513C534.395 307.513 570.395 268.377 606.895 275.013C643.395 281.65 638.395 327.513 638.395 327.513Z" fill="url(#paint0_radial_182_4)"/>
<path d="M638.395 327.513L617.395 412.013L671.395 423.013L692.395 339.013C692.395 339.013 706.395 240.513 618.395 221.013C516.395 209.013 468.895 307.513 467.395 310.013C461.395 320.013 449.895 362.013 449.895 362.013C449.895 362.013 459.395 358.013 475.895 362.013C492.395 366.013 498.895 377.013 498.895 377.013C498.895 377.013 508.895 344.513 516.395 333.513C522.895 320.513 534.395 307.513 534.395 307.513C534.395 307.513 570.395 268.377 606.895 275.013C643.395 281.65 638.395 327.513 638.395 327.513Z" fill="url(#paint1_radial_182_4)" fill-opacity="0.2"/>
<path d="M449.949 362.191C448.949 365.691 446.949 374.191 468.449 378.691C497.449 384.761 497.949 380.191 498.949 376.691C499.95 373.191 491.949 364.691 475.449 361.191C458.949 357.691 450.95 358.691 449.949 362.191Z" fill="#7B7B7B"/>
<path d="M689.394 423.013C689.394 423.013 659.394 403.513 639.394 405.013C657.393 407.717 677.894 420.013 677.894 450.013C676.895 455.013 574.894 802.013 582.394 818.513C584.394 827.513 656.394 866.013 656.394 866.013C656.394 866.013 663.394 857.513 667.894 844.513C674.144 829.513 750.394 517.013 750.394 517.013C750.394 517.013 756.894 492.013 737.894 467.513C724.394 448.513 689.394 423.013 689.394 423.013Z" fill="url(#paint2_linear_182_4)"/>
<path d="M319.394 460.513C339.394 406.013 388.394 409.013 388.394 409.013C388.394 409.013 608.394 404.513 618.394 404.513C675.894 400.013 678.894 441.013 678.894 444.513C677.894 462.513 581.062 790.013 582.394 818.013C582.703 824.513 656.894 865.513 656.894 865.513C656.894 865.513 648.394 875.013 636.394 875.013C618.894 876.513 571.894 874.013 571.894 874.013L329.394 863.513C307.894 864.513 289.394 849.013 289.394 849.013L249.894 822.513C249.894 822.513 223.894 807.013 232.894 779.013C233.894 736.513 319.394 460.513 319.394 460.513Z" fill="url(#paint3_linear_182_4)"/>
<g filter="url(#filter1_f_182_4)">
<rect x="666.365" y="453.013" width="23.9487" height="262.459" transform="rotate(15.4622 666.365 453.013)" fill="white" fill-opacity="0.5"/>
</g>
<path d="M459.395 541.013C406.395 546.013 395.395 590.013 395.395 590.013C383.394 613.513 396.394 642.513 396.394 642.513C396.394 642.513 403.895 650.513 403.895 665.013C403.894 679.513 393.895 713.513 395.395 720.013C396.894 726.513 401.395 726.513 401.395 726.513H425.395C428.894 726.513 434.895 714.013 434.895 714.013C434.895 714.013 450.894 665.013 459.395 659.513C470.894 650.013 498.895 625.513 502.895 595.013C502.895 595.013 510.895 543.513 459.395 541.013Z" fill="url(#paint4_linear_182_4)"/>
<g clip-path="url(#paint5_diamond_182_4_clip_path)" data-figma-skip-parse="true"><g transform="matrix(-0.0108177 -0.103182 0.0628748 -0.00659181 488.394 614.513)"><rect x="0" y="0" width="1099.27" height="1745.16" fill="url(#paint5_diamond_182_4)" opacity="0.2" shape-rendering="crispEdges"/><rect x="0" y="0" width="1099.27" height="1745.16" transform="scale(1 -1)" fill="url(#paint5_diamond_182_4)" opacity="0.2" shape-rendering="crispEdges"/><rect x="0" y="0" width="1099.27" height="1745.16" transform="scale(-1 1)" fill="url(#paint5_diamond_182_4)" opacity="0.2" shape-rendering="crispEdges"/><rect x="0" y="0" width="1099.27" height="1745.16" transform="scale(-1)" fill="url(#paint5_diamond_182_4)" opacity="0.2" shape-rendering="crispEdges"/></g></g><path d="M459.395 541.013C406.395 546.013 395.395 590.013 395.395 590.013C383.394 613.513 396.394 642.513 396.394 642.513C396.394 642.513 403.895 650.513 403.895 665.013C403.894 679.513 393.895 713.513 395.395 720.013C396.894 726.513 401.395 726.513 401.395 726.513H425.395C428.894 726.513 434.895 714.013 434.895 714.013C434.895 714.013 450.894 665.013 459.395 659.513C470.894 650.013 498.895 625.513 502.895 595.013C502.895 595.013 510.895 543.513 459.395 541.013Z" data-figma-gradient-fill="{&#34;type&#34;:&#34;GRADIENT_DIAMOND&#34;,&#34;stops&#34;:[{&#34;color&#34;:{&#34;r&#34;:0.0,&#34;g&#34;:0.0,&#34;b&#34;:0.0,&#34;a&#34;:1.0},&#34;position&#34;:0.0},{&#34;color&#34;:{&#34;r&#34;:0.0,&#34;g&#34;:0.0,&#34;b&#34;:0.0,&#34;a&#34;:0.0},&#34;position&#34;:1.0}],&#34;stopsVar&#34;:[{&#34;color&#34;:{&#34;r&#34;:0.0,&#34;g&#34;:0.0,&#34;b&#34;:0.0,&#34;a&#34;:1.0},&#34;position&#34;:0.0},{&#34;color&#34;:{&#34;r&#34;:0.0,&#34;g&#34;:0.0,&#34;b&#34;:0.0,&#34;a&#34;:0.0},&#34;position&#34;:1.0}],&#34;transform&#34;:{&#34;m00&#34;:-21.635345458984375,&#34;m01&#34;:125.74958801269531,&#34;m02&#34;:436.33691406250,&#34;m10&#34;:-206.36468505859375,&#34;m11&#34;:-13.183629035949707,&#34;m12&#34;:724.2873535156250},&#34;opacity&#34;:0.20000000298023224,&#34;blendMode&#34;:&#34;NORMAL&#34;,&#34;visible&#34;:true}"/>
<path d="M459.395 541.013C406.395 546.013 395.395 590.013 395.395 590.013C383.394 613.513 396.394 642.513 396.394 642.513C396.394 642.513 403.895 650.513 403.895 665.013C403.894 679.513 393.895 713.513 395.395 720.013C396.894 726.513 401.395 726.513 401.395 726.513H425.395C428.894 726.513 434.895 714.013 434.895 714.013C434.895 714.013 450.894 665.013 459.395 659.513C470.894 650.013 498.895 625.513 502.895 595.013C502.895 595.013 510.895 543.513 459.395 541.013Z" fill="black" fill-opacity="0.1"/>
</g>
<defs>
<filter id="filter0_d_182_4" x="0" y="0" width="1020.47" height="1155.49" filterUnits="userSpaceOnUse" color-interpolation-filters="sRGB">
<feFlood flood-opacity="0" result="BackgroundImageFix"/>
<feColorMatrix in="SourceAlpha" type="matrix" values="0 0 0 0 0 0 0 0 0 0 0 0 0 0 0 0 0 0 127 0" result="hardAlpha"/>
<feOffset dx="19" dy="30"/>
<feGaussianBlur stdDeviation="125"/>
<feComposite in2="hardAlpha" operator="out"/>
<feColorMatrix type="matrix" values="0 0 0 0 0.351562 0 0 0 0 0.51975 0 0 0 0 0.675 0 0 0 0.48 0"/>
<feBlend mode="normal" in2="BackgroundImageFix" result="effect1_dropShadow_182_4"/>
<feBlend mode="normal" in="SourceGraphic" in2="effect1_dropShadow_182_4" result="shape"/>
</filter>
<filter id="filter1_f_182_4" x="554.793" y="411.413" width="176.255" height="342.544" filterUnits="userSpaceOnUse" color-interpolation-filters="sRGB">
<feFlood flood-opacity="0" result="BackgroundImageFix"/>
<feBlend mode="normal" in="SourceGraphic" in2="BackgroundImageFix" result="shape"/>
<feGaussianBlur stdDeviation="20.8" result="effect1_foregroundBlur_182_4"/>
</filter>
<clipPath id="paint5_diamond_182_4_clip_path"><path d="M459.395 541.013C406.395 546.013 395.395 590.013 395.395 590.013C383.394 613.513 396.394 642.513 396.394 642.513C396.394 642.513 403.895 650.513 403.895 665.013C403.894 679.513 393.895 713.513 395.395 720.013C396.894 726.513 401.395 726.513 401.395 726.513H425.395C428.894 726.513 434.895 714.013 434.895 714.013C434.895 714.013 450.894 665.013 459.395 659.513C470.894 650.013 498.895 625.513 502.895 595.013C502.895 595.013 510.895 543.513 459.395 541.013Z"/></clipPath><radialGradient id="paint0_radial_182_4" cx="0" cy="0" r="1" gradientUnits="userSpaceOnUse" gradientTransform="translate(571.552 321.507) rotate(90) scale(101.507 121.658)">
<stop stop-color="#737373"/>
<stop offset="1" stop-color="#D9D9D9"/>
</radialGradient>
<radialGradient id="paint1_radial_182_4" cx="0" cy="0" r="1" gradientUnits="userSpaceOnUse" gradientTransform="translate(571.552 321.507) rotate(29.002) scale(280.518 336.207)">
<stop stop-opacity="0"/>
<stop offset="1"/>
</radialGradient>
<linearGradient id="paint2_linear_182_4" x1="715.394" y1="444.013" x2="600.394" y2="846.013" gradientUnits="userSpaceOnUse">
<stop offset="0.873841" stop-color="#C279F2"/>
<stop offset="0.986667" stop-color="#7B15BF"/>
</linearGradient>
<linearGradient id="paint3_linear_182_4" x1="454.947" y1="404.168" x2="454.947" y2="875.492" gradientUnits="userSpaceOnUse">
<stop offset="0.81" stop-color="#C279F2"/>
<stop offset="0.92" stop-color="#7B15BF"/>
</linearGradient>
<linearGradient id="paint4_linear_182_4" x1="430.894" y1="555.013" x2="578.894" y2="628.513" gradientUnits="userSpaceOnUse">
<stop stop-color="#480773"/>
<stop offset="0.881667" stop-color="#070707"/>
</linearGradient>
<linearGradient id="paint5_diamond_182_4" x1="0" y1="0" x2="500" y2="500" gradientUnits="userSpaceOnUse">
<stop/>
<stop offset="1" stop-opacity="0"/>
</linearGradient>
</defs>
</svg>
