<svg width="174" height="163" viewBox="0 0 174 163" fill="none" xmlns="http://www.w3.org/2000/svg">
<rect x="1" y="1.00049" width="171.968" height="160.429" rx="14" fill="black" stroke="#C279F2" stroke-width="2"/>
<path d="M93.0022 133.624C91.9312 133.624 90.9332 133.355 90.0083 132.817C89.0833 132.279 88.3774 131.57 87.8906 130.69C87.4038 129.81 87.1604 128.832 87.1604 127.756C87.1604 126.68 87.4525 125.653 88.0366 124.675L112.864 83.5995C113.448 82.6215 114.179 81.888 115.055 81.399C115.931 80.91 116.856 80.6655 117.83 80.6655C118.803 80.6655 119.728 80.91 120.605 81.399C121.481 81.888 122.211 82.6215 122.795 83.5995L147.623 124.675C148.207 125.653 148.499 126.68 148.499 127.756C148.499 128.832 148.256 129.81 147.769 130.69C147.282 131.57 146.601 132.279 145.724 132.817C144.848 133.355 143.826 133.624 142.657 133.624H93.0022ZM117.83 127.756C118.609 127.756 119.29 127.462 119.874 126.876C120.459 126.289 120.751 125.604 120.751 124.822C120.751 124.04 120.459 123.355 119.874 122.768C119.29 122.181 118.609 121.888 117.83 121.888C117.051 121.888 116.369 122.181 115.785 122.768C115.201 123.355 114.909 124.04 114.909 124.822C114.909 125.604 115.201 126.289 115.785 126.876C116.369 127.462 117.051 127.756 117.83 127.756ZM62.7709 121.888C61.6999 121.888 60.7019 121.619 59.7769 121.081C58.852 120.543 58.1461 119.785 57.6593 118.807L49.2978 103.84C47.9402 101.41 49.697 98.4161 52.4807 98.4161C53.8639 98.4161 55.1281 99.1989 55.7445 100.437L58.2904 105.552C59.6933 108.37 62.5704 110.152 65.7187 110.152H71.0823C72.7027 110.152 74.0163 108.838 74.0163 107.218C74.0163 105.598 72.7027 104.284 71.0823 104.284H67.8833C65.5563 104.284 63.4298 102.967 62.3928 100.884L61.1644 98.4161C59.3748 94.8209 55.7047 92.5481 51.6887 92.5481H50.4157C45.866 92.5481 41.6674 90.1031 39.4219 86.1462L34.7302 77.8782C34.5355 77.3892 34.3651 76.9002 34.2191 76.4112C34.073 75.9222 34 75.4332 34 74.9442C34 74.7041 34.0917 74.2428 34.2752 73.5603C34.5539 72.5235 34.9975 71.5393 35.5274 70.6054L39.422 63.7423C41.6674 59.7853 45.866 57.3403 50.4157 57.3403H51.6887C55.7047 57.3403 59.3748 55.0675 61.1644 51.4723L62.3928 49.0044C63.4298 46.9213 65.5563 45.6044 67.8833 45.6044H71.0823C72.7027 45.6044 74.0163 44.2908 74.0163 42.6704C74.0163 41.05 72.7027 39.7364 71.0823 39.7364H65.7187C62.5704 39.7364 59.6933 41.5181 58.2904 44.3365L55.7445 49.4512C55.1281 50.6895 53.8639 51.4723 52.4807 51.4723C49.697 51.4723 47.9402 48.4786 49.2978 46.0485L57.6593 31.0812C58.1461 30.1032 58.852 29.3452 59.7769 28.8073C60.7019 28.2694 61.6999 28.0005 62.7709 28.0005H76.9372C78.5924 28.0005 79.9798 28.5628 81.0995 29.6875C82.2192 30.8122 82.779 32.2059 82.779 33.8685V51.1499C82.779 54.5688 80.0075 57.3403 76.5886 57.3403H75.2355C74.4551 57.3403 73.7068 57.6512 73.1562 58.2043C71.3143 60.0545 72.6247 63.2083 75.2355 63.2083H78.4919C80.8596 63.2083 82.779 65.1277 82.779 67.4954V72.8753C82.779 77.2587 79.2256 80.8122 74.8421 80.8122C71.8308 80.8122 69.0788 79.1079 67.7368 76.4121L67.0062 74.9442C65.2166 71.349 61.5465 69.0762 57.5305 69.0762H51.8683C51.0879 69.0762 50.3396 69.3872 49.789 69.9402C47.9471 71.7904 49.2575 74.9442 51.8683 74.9442H57.3521C59.3299 74.9442 61.1373 76.0635 62.0187 77.834L63.6344 81.08C65.3423 84.5111 68.8449 86.6801 72.6775 86.6801C78.2564 86.6801 82.779 91.2027 82.779 96.7816V106.534C82.779 109.284 82.0231 111.981 80.5938 114.331L77.9595 118.661C77.6674 119.15 77.424 119.663 77.2293 120.201C76.8665 121.203 75.9257 121.888 74.8598 121.888H62.7709ZM114.909 113.099C114.909 114.712 116.217 116.02 117.83 116.02C119.443 116.02 120.751 114.712 120.751 113.099V101.337C120.751 99.7238 119.443 98.4161 117.83 98.4161C116.217 98.4161 114.909 99.7238 114.909 101.337V113.099ZM102.933 77.5848C98.8717 84.2456 88.6208 81.3667 88.6208 73.5653V67.4954C88.6208 65.1277 90.5402 63.2083 92.9079 63.2083H96.1644C98.7751 63.2083 100.086 60.0545 98.2437 58.2043C97.6931 57.6512 96.9448 57.3403 96.1644 57.3403H94.8113C91.3924 57.3403 88.6208 54.5688 88.6208 51.1499V33.8685C88.6208 32.2059 89.1807 30.8122 90.3003 29.6875C91.42 28.5628 92.8074 28.0005 94.4626 28.0005H108.629C109.7 28.0005 110.698 28.2694 111.623 28.8073C112.548 29.3452 113.254 30.1032 113.741 31.0812L122.102 46.0485C123.46 48.4786 121.703 51.4723 118.919 51.4723C117.536 51.4723 116.272 50.6895 115.655 49.4512L113.109 44.3365C111.707 41.5181 108.829 39.7364 105.681 39.7364H100.318C98.6971 39.7364 97.3835 41.05 97.3835 42.6704C97.3835 44.2908 98.6971 45.6044 100.318 45.6044H103.517C105.844 45.6044 107.97 46.9213 109.007 49.0044L110.235 51.4723C112.025 55.0676 115.695 57.3403 119.711 57.3403H120.984C125.534 57.3403 129.732 59.7853 131.978 63.7423L136.67 72.0102C136.962 72.4992 137.156 72.9882 137.254 73.4772C137.351 73.9662 137.4 74.4552 137.4 74.9442C137.4 75.0374 137.179 75.9307 136.736 77.624C136.692 77.7923 136.626 77.9548 136.54 78.106C135.8 79.4069 133.945 79.4613 133.13 78.206L132.726 77.5848C131.071 74.9442 128.954 72.8415 126.373 71.2767C123.793 69.7119 120.945 68.9295 117.83 68.9295C114.714 68.9295 111.866 69.7119 109.286 71.2767C106.706 72.8415 104.588 74.9442 102.933 77.5848Z" fill="white"/>
</svg>
