<svg width="174" height="163" viewBox="0 0 174 163" fill="none" xmlns="http://www.w3.org/2000/svg">
<rect x="1" y="1.00049" width="171.968" height="160.429" rx="14" fill="black" stroke="#C279F2" stroke-width="2"/>
<path d="M78.3438 94.65H94.6562L91.5297 78.3638C93.3422 77.5221 94.7695 76.3017 95.8117 74.7025C96.8539 73.1033 97.375 71.3358 97.375 69.4C97.375 66.6225 96.3102 64.2448 94.1805 62.2669C92.0508 60.289 89.4906 59.3 86.5 59.3C83.5094 59.3 80.9492 60.289 78.8195 62.2669C76.6898 64.2448 75.625 66.6225 75.625 69.4C75.625 71.3358 76.1461 73.1033 77.1883 74.7025C78.2305 76.3017 79.6578 77.5221 81.4703 78.3638L78.3438 94.65ZM86.5 130C73.9031 127.054 63.5039 120.342 55.3023 109.863C47.1008 99.3844 43 87.7483 43 74.955V44.15L86.5 29L130 44.15V74.955C130 87.7483 125.899 99.3844 117.698 109.863C109.496 120.342 99.0969 127.054 86.5 130ZM86.5 119.395C95.925 116.618 103.719 111.062 109.881 102.73C116.044 94.3975 119.125 85.1392 119.125 74.955V51.0938L86.5 39.7312L53.875 51.0938V74.955C53.875 85.1392 56.9563 94.3975 63.1187 102.73C69.2812 111.062 77.075 116.618 86.5 119.395Z" fill="white"/>
</svg>
