<svg width="88" height="88" viewBox="0 0 88 88" fill="none" xmlns="http://www.w3.org/2000/svg">
<path d="M43.9993 44.0001C39.966 44.0001 36.5132 42.564 33.641 39.6917C30.7688 36.8195 29.3327 33.3667 29.3327 29.3334C29.3327 25.3001 30.7688 21.8473 33.641 18.9751C36.5132 16.1029 39.966 14.6667 43.9993 14.6667C48.0327 14.6667 51.4855 16.1029 54.3577 18.9751C57.2299 21.8473 58.666 25.3001 58.666 29.3334C58.666 33.3667 57.2299 36.8195 54.3577 39.6917C51.4855 42.564 48.0327 44.0001 43.9993 44.0001ZM14.666 73.3334V63.0667C14.666 60.989 15.2007 59.0793 16.2702 57.3376C17.3396 55.5959 18.7605 54.2668 20.5327 53.3501C24.3216 51.4556 28.1716 50.0348 32.0827 49.0876C35.9938 48.1404 39.966 47.6667 43.9993 47.6667C48.0327 47.6667 52.0049 48.1404 55.916 49.0876C59.8271 50.0348 63.6771 51.4556 67.466 53.3501C69.2382 54.2668 70.6591 55.5959 71.7285 57.3376C72.798 59.0793 73.3327 60.989 73.3327 63.0667V73.3334H14.666ZM21.9993 66.0001H65.9994V63.0667C65.9994 62.3945 65.8313 61.7834 65.4952 61.2334C65.1591 60.6834 64.716 60.2556 64.166 59.9501C60.866 58.3001 57.5355 57.0626 54.1744 56.2376C50.8132 55.4126 47.4216 55.0001 43.9993 55.0001C40.5771 55.0001 37.1855 55.4126 33.8243 56.2376C30.4632 57.0626 27.1327 58.3001 23.8327 59.9501C23.2827 60.2556 22.8396 60.6834 22.5035 61.2334C22.1674 61.7834 21.9993 62.3945 21.9993 63.0667V66.0001ZM43.9993 36.6667C46.016 36.6667 47.7424 35.9487 49.1785 34.5126C50.6146 33.0765 51.3327 31.3501 51.3327 29.3334C51.3327 27.3167 50.6146 25.5904 49.1785 24.1542C47.7424 22.7181 46.016 22.0001 43.9993 22.0001C41.9827 22.0001 40.2563 22.7181 38.8202 24.1542C37.3841 25.5904 36.666 27.3167 36.666 29.3334C36.666 31.3501 37.3841 33.0765 38.8202 34.5126C40.2563 35.9487 41.9827 36.6667 43.9993 36.6667Z" fill="#7B15BF" fill-opacity="0.75"/>
</svg>
