<svg width="174" height="163" viewBox="0 0 174 163" fill="none" xmlns="http://www.w3.org/2000/svg">
<rect x="1" y="1.00049" width="171.968" height="160.429" rx="14" fill="black" stroke="#C279F2" stroke-width="2"/>
<path d="M83.8782 131.142C77.0548 131.142 70.6059 129.832 64.5315 127.21C58.457 124.589 53.1523 121.011 48.6172 116.476C44.0822 111.941 40.5041 106.636 37.8829 100.562C35.2618 94.4874 33.9512 88.0384 33.9512 81.2151C33.9512 74.3085 35.2618 67.8388 37.8829 61.806C40.5041 55.7731 44.0822 50.4892 48.6172 45.9541C53.1523 41.4191 58.457 37.841 64.5315 35.2198C70.6059 32.5987 77.0548 31.2881 83.8782 31.2881C86.541 31.2881 89.0997 31.4753 91.5545 31.8498C95.964 32.5224 98.8563 36.5749 98.8563 41.0355V46.2662C98.8563 49.0122 97.8785 51.3629 95.9231 53.3184C93.9676 55.2738 91.6169 56.2516 88.8709 56.2516C83.3561 56.2516 78.8855 60.7222 78.8855 66.237C78.8855 67.6516 78.407 68.8374 77.4501 69.7943C76.4931 70.7512 75.3074 71.2297 73.8928 71.2297H68.9001C66.1427 71.2297 63.9074 73.465 63.9074 76.2224C63.9074 78.9798 66.1427 81.2151 68.9001 81.2151H93.8636C95.2782 81.2151 96.4639 81.6936 97.4209 82.6505C98.3778 83.6074 98.8563 84.7932 98.8563 86.2078V96.1932C98.8563 98.9506 101.092 101.186 103.849 101.186C106.096 101.186 108.072 101.852 109.778 103.183C111.958 104.884 115.598 105.552 117.119 103.243C118.642 100.932 119.939 98.4784 121.011 95.8811C122.884 91.3461 123.82 86.4574 123.82 81.2151C123.82 80.2998 123.778 79.4676 123.695 78.7187C123.55 77.4121 124.531 76.2224 125.845 76.2224H131.043C132.498 76.2224 133.805 77.264 133.805 78.7187V81.2151C133.805 88.0384 132.495 94.4874 129.873 100.562C127.252 106.636 123.674 111.941 119.139 116.476C114.604 121.011 109.32 124.589 103.287 127.21C97.2545 129.832 90.7847 131.142 83.8782 131.142ZM73.8021 119.959C76.4659 120.627 78.8855 118.48 78.8855 115.734C78.8855 113.214 76.7305 111.297 74.477 110.17C73.5275 109.695 72.6462 109.051 71.8333 108.238C69.8778 106.283 68.9001 103.932 68.9001 101.186C68.9001 97.9891 67.6302 94.9233 65.3697 92.6628L48.1494 75.4425C46.804 74.0971 44.5104 74.837 44.2486 76.7217C44.0406 78.2195 43.9366 79.7173 43.9366 81.2151C43.9366 91.5333 47.2858 100.416 53.9844 107.864C59.5031 113.999 66.109 118.031 73.8021 119.959ZM113.834 66.237C112.42 66.237 111.234 65.7585 110.277 64.8016C109.32 63.8447 108.842 62.6589 108.842 61.2443V46.2662C108.842 44.8516 109.32 43.6658 110.277 42.7089C111.817 41.1691 113.834 39.5082 113.834 37.3307V36.2808C113.834 33.5348 114.812 31.1841 116.768 29.2286C118.723 27.2731 121.074 26.2954 123.82 26.2954C126.566 26.2954 128.917 27.2731 130.872 29.2286C132.827 31.1841 133.805 33.5348 133.805 36.2808V37.3307C133.805 39.5082 135.823 41.1691 137.362 42.7089C138.319 43.6658 138.798 44.8516 138.798 46.2662V61.2443C138.798 62.6589 138.319 63.8447 137.362 64.8016C136.406 65.7585 135.22 66.237 133.805 66.237H113.834ZM118.827 36.2808C118.827 39.0382 121.062 41.2735 123.82 41.2735C126.577 41.2735 128.812 39.0382 128.812 36.2808C128.812 34.8662 128.334 33.6804 127.377 32.7235C126.42 31.7665 125.234 31.2881 123.82 31.2881C122.405 31.2881 121.219 31.7665 120.262 32.7235C119.306 33.6804 118.827 34.8662 118.827 36.2808Z" fill="white"/>
</svg>
